# xmcd CD database file
# Copyright (C) 1993-1998 Ti Kan
# 
# Track frame offsets:
#     182
#     19000
#     40227
#     59427
#     83187
#     101547
#     121895
#     143725
#     159277
#     179990
# 
# Disc length: 2692 seconds
# 
# Revision: 1
# Processed by: cddbd v1.4b41PL1 Copyright (c) Steve Scherf et al.
# Submitted via: DiscPlay 4.0.3
# 
DISCID=810a820a
DTITLE=Various Artist - History of Rap (Volume 2)
DYEAR=1900
DGENRE=
TTITLE0=Funky Cold Medina -Tone Loc
TTITLE1=I'm Bad -L.L. Cool J
TTITLE2=Short But Funky -Too Short
TTITLE3=Microphone Fiend -Eric B. and Rakim
TTITLE4=Brand New Funk -The Fresh Prince
TTITLE5=Push It -Salt 'N Pepa
TTITLE6=Do This My Way -Kid 'N Play
TTITLE7=Ease Back-Ultramagnetic MCs
TTITLE8=Sally -Stetsasonic
TTITLE9=Hey Love -King Sun
EXTD=
EXTT0=
EXTT1=
EXTT2=
EXTT3=
EXTT4=
EXTT5=
EXTT6=
EXTT7=
EXTT8=
EXTT9=
PLAYORDER=
